Felony.Fights.3.dvdrip.xvid



Format                         : AVI
Format/Info                      : Audio Video Interleave
File size                        : 448 MiB
Duration                       : 52mn 28s
Overall bit rate               : 1 193 Kbps
Writing application              : VirtualDubMod 1.5.4.1 (build 2178/release)
Writing library                  : VirtualDubMod build 2178/release

Video
Format                         : MPEG-4 Visual
Format settings, BVOP            : No
Format settings, QPel            : No
Format settings, GMC           : No warppoints
Format settings, Matrix          : Custom
Codec ID                       : XVID
Codec ID/Hint                    : XviD
Duration                       : 52mn 28s
Bit rate                       : 1 067 Kbps
Width                            : 496 pixels
Height                         : 368 pixels
Display aspect ratio           : 4/3
Frame rate                     : 29.970 fps
Resolution                     : 24 bits
Colorimetry                      : 4:2:0
Scan type                        : Progressive
Bits/(Pixel*Frame)             : 0.195
Stream size                      : 401 MiB (89%)

Audio
Format                         : MPEG Audio
Format version                 : Version 1
Format profile                 : Layer 3
Codec ID                       : 55
Codec ID/Hint                    : MP3
Duration                       : 52mn 28s
Bit rate mode                    : Variable
Bit rate                       : 112 Kbps
Minimum bit rate               : 128 Kbps
Channel(s)                     : 2 channels
Sampling rate                    : 48.0 KHz
Resolution                     : 16 bits
Stream size                      : 41.9 MiB (9%)
Alignment                        : Aligned on interleaves
Interleave, duration           : 24 ms (0.72 video frame)
Interleave, preload duration   : 165 ms
Writing library                  : LAME3.97b
Encoding settings                : ABR






The 3rd installment of Felony Fights once again drags you into the world of
combat with convicted felons getting down like they do in prison! Brutal
fighting attacks that makes UFC, MMA and martial arts look like childs play.


Category  Sports Highlights DVDs, Sports - Extreme Movies, Music Video
Videos, Education, Media Arts, Violence, Competitions, Gangs, Urban Violence
Standard Screen; Soundtrack English

Some of the most brutal hand to hand battles ever captured on video are
collected on FELONY FIGHTS. The fistfights and street brawls seen here are
between gangs, felony convicts, skinheads, thugs, and more. Each battle is real
and completely uncut, with no rules, making for some of the most vicious and
violent footage ever assembled. Also included are fights between felony women.
Needless to say, FELONY FIGHTS is for mature audiences.


Better quality on this 1.

ENJOY PLEASE SEED :)